<?xml version="1.0" encoding="UTF-8" standalone="no"?>
<!DOCTYPE svg PUBLIC "-//W3C//DTD SVG 1.1//EN"
 "http://www.w3.org/Graphics/SVG/1.1/DTD/svg11.dtd">
<!-- Generated by graphviz version 2.43.0 (0)
 -->
<!-- Title: %3 Pages: 1 -->
<svg width="527pt" height="299pt"
 viewBox="0.00 0.00 526.96 299.00" xmlns="http://www.w3.org/2000/svg" xmlns:xlink="http://www.w3.org/1999/xlink">
<g id="graph0" class="graph" transform="scale(1 1) rotate(0) translate(4 295)">
<title>%3</title>
<!-- order_placed -->
<g id="node1" class="node">
<title>order_placed</title>
<ellipse fill="#e8f4fd" stroke="#4a90d9" stroke-width="1.5" cx="50.91" cy="-50.91" rx="50.82" ry="50.82"/>
<text text-anchor="middle" x="50.91" y="-54.11" font-family="Helvetica,sans-Serif" font-size="11.00">order</text>
<text text-anchor="middle" x="50.91" y="-42.11" font-family="Helvetica,sans-Serif" font-size="11.00">placed (1)</text>
</g>
<!-- reserve_stock -->
<g id="node7" class="node">
<title>reserve_stock</title>
<path fill="#f0f0f0" stroke="#666666" d="M184.82,-179.91C184.82,-179.91 149.82,-179.91 149.82,-179.91 143.82,-179.91 137.82,-173.91 137.82,-167.91 137.82,-167.91 137.82,-155.91 137.82,-155.91 137.82,-149.91 143.82,-143.91 149.82,-143.91 149.82,-143.91 184.82,-143.91 184.82,-143.91 190.82,-143.91 196.82,-149.91 196.82,-155.91 196.82,-155.91 196.82,-167.91 196.82,-167.91 196.82,-173.91 190.82,-179.91 184.82,-179.91"/>
<text text-anchor="middle" x="167.32" y="-165.11" font-family="Helvetica,sans-Serif" font-size="11.00">reserve</text>
<text text-anchor="middle" x="167.32" y="-153.11" font-family="Helvetica,sans-Serif" font-size="11.00">stock</text>
</g>
<!-- order_placed&#45;&gt;reserve_stock -->
<g id="edge1" class="edge">
<title>order_placed&#45;&gt;reserve_stock</title>
<path fill="none" stroke="#555555" d="M88.11,-86.03C105.1,-102.52 124.96,-121.79 140.42,-136.78"/>
<polygon fill="#555555" stroke="#555555" points="138.01,-139.32 147.62,-143.77 142.88,-134.29 138.01,-139.32"/>
</g>
<!-- out_of_stock_t -->
<g id="node9" class="node">
<title>out_of_stock_t</title>
<path fill="#f0f0f0" stroke="#666666" d="M182.32,-68.91C182.32,-68.91 152.32,-68.91 152.32,-68.91 146.32,-68.91 140.32,-62.91 140.32,-56.91 140.32,-56.91 140.32,-44.91 140.32,-44.91 140.32,-38.91 146.32,-32.91 152.32,-32.91 152.32,-32.91 182.32,-32.91 182.32,-32.91 188.32,-32.91 194.32,-38.91 194.32,-44.91 194.32,-44.91 194.32,-56.91 194.32,-56.91 194.32,-62.91 188.32,-68.91 182.32,-68.91"/>
<text text-anchor="middle" x="167.32" y="-54.11" font-family="Helvetica,sans-Serif" font-size="11.00">out of</text>
<text text-anchor="middle" x="167.32" y="-42.11" font-family="Helvetica,sans-Serif" font-size="11.00">stock</text>
</g>
<!-- order_placed&#45;&gt;out_of_stock_t -->
<g id="edge8" class="edge">
<title>order_placed&#45;&gt;out_of_stock_t</title>
<path fill="none" stroke="#d9534f" stroke-dasharray="5,2" d="M102.09,-50.91C111.5,-50.91 121.17,-50.91 130.05,-50.91"/>
<polygon fill="#d9534f" stroke="#d9534f" points="130.06,-54.41 140.06,-50.91 130.06,-47.41 130.06,-54.41"/>
</g>
<!-- inventory -->
<g id="node2" class="node">
<title>inventory</title>
<ellipse fill="#e8f4fd" stroke="#4a90d9" stroke-width="1.5" cx="50.91" cy="-168.91" rx="48.58" ry="48.58"/>
<text text-anchor="middle" x="50.91" y="-172.11" font-family="Helvetica,sans-Serif" font-size="11.00">inventory</text>
<text text-anchor="middle" x="50.91" y="-160.11" font-family="Helvetica,sans-Serif" font-size="11.00">(3)</text>
</g>
<!-- inventory&#45;&gt;reserve_stock -->
<g id="edge2" class="edge">
<title>inventory&#45;&gt;reserve_stock</title>
<path fill="none" stroke="#555555" d="M99.77,-165.98C109.01,-165.42 118.59,-164.83 127.5,-164.29"/>
<polygon fill="#555555" stroke="#555555" points="127.83,-167.77 137.6,-163.67 127.4,-160.79 127.83,-167.77"/>
</g>
<!-- reserved -->
<g id="node3" class="node">
<title>reserved</title>
<ellipse fill="#e8f4fd" stroke="#4a90d9" stroke-width="1.5" cx="271.91" cy="-251.91" rx="39.17" ry="39.17"/>
<text text-anchor="middle" x="271.91" y="-249.11" font-family="Helvetica,sans-Serif" font-size="11.00">reserved</text>
</g>
<!-- process_payment -->
<g id="node8" class="node">
<title>process_payment</title>
<path fill="#f0f0f0" stroke="#666666" d="M400,-221.91C400,-221.91 359,-221.91 359,-221.91 353,-221.91 347,-215.91 347,-209.91 347,-209.91 347,-197.91 347,-197.91 347,-191.91 353,-185.91 359,-185.91 359,-185.91 400,-185.91 400,-185.91 406,-185.91 412,-191.91 412,-197.91 412,-197.91 412,-209.91 412,-209.91 412,-215.91 406,-221.91 400,-221.91"/>
<text text-anchor="middle" x="379.5" y="-207.11" font-family="Helvetica,sans-Serif" font-size="11.00">process</text>
<text text-anchor="middle" x="379.5" y="-195.11" font-family="Helvetica,sans-Serif" font-size="11.00">payment</text>
</g>
<!-- reserved&#45;&gt;process_payment -->
<g id="edge6" class="edge">
<title>reserved&#45;&gt;process_payment</title>
<path fill="none" stroke="#555555" d="M307.78,-236.06C317.34,-231.72 327.78,-226.97 337.65,-222.48"/>
<polygon fill="#555555" stroke="#555555" points="339.22,-225.61 346.87,-218.29 336.32,-219.24 339.22,-225.61"/>
</g>
<!-- payment -->
<g id="node4" class="node">
<title>payment</title>
<ellipse fill="#e8f4fd" stroke="#4a90d9" stroke-width="1.5" cx="271.91" cy="-155.91" rx="39.17" ry="39.17"/>
<text text-anchor="middle" x="271.91" y="-153.11" font-family="Helvetica,sans-Serif" font-size="11.00">payment</text>
</g>
<!-- payment&#45;&gt;process_payment -->
<g id="edge5" class="edge">
<title>payment&#45;&gt;process_payment</title>
<path fill="none" stroke="#555555" d="M307.78,-171.76C317.34,-176.11 327.78,-180.86 337.65,-185.34"/>
<polygon fill="#555555" stroke="#555555" points="336.32,-188.58 346.87,-189.54 339.22,-182.21 336.32,-188.58"/>
</g>
<!-- shipped -->
<g id="node5" class="node">
<title>shipped</title>
<ellipse fill="#d4edda" stroke="#28a745" stroke-width="1.5" cx="483.48" cy="-203.91" rx="35.46" ry="35.46"/>
<text text-anchor="middle" x="483.48" y="-201.11" font-family="Helvetica,sans-Serif" font-size="11.00">shipped</text>
</g>
<!-- out_of_stock -->
<g id="node6" class="node">
<title>out_of_stock</title>
<ellipse fill="#d4edda" stroke="#28a745" stroke-width="1.5" cx="271.91" cy="-50.91" rx="34.8" ry="34.8"/>
<text text-anchor="middle" x="271.91" y="-54.11" font-family="Helvetica,sans-Serif" font-size="11.00">out of</text>
<text text-anchor="middle" x="271.91" y="-42.11" font-family="Helvetica,sans-Serif" font-size="11.00">stock</text>
</g>
<!-- reserve_stock&#45;&gt;reserved -->
<g id="edge3" class="edge">
<title>reserve_stock&#45;&gt;reserved</title>
<path fill="none" stroke="#555555" d="M189.08,-180.12C202.05,-191.5 219.1,-206.46 234.28,-219.78"/>
<polygon fill="#555555" stroke="#555555" points="232.19,-222.6 242.02,-226.56 236.81,-217.34 232.19,-222.6"/>
</g>
<!-- reserve_stock&#45;&gt;payment -->
<g id="edge4" class="edge">
<title>reserve_stock&#45;&gt;payment</title>
<path fill="none" stroke="#555555" d="M196.9,-160.24C204.83,-159.78 213.66,-159.26 222.38,-158.75"/>
<polygon fill="#555555" stroke="#555555" points="222.74,-162.24 232.52,-158.16 222.33,-155.25 222.74,-162.24"/>
</g>
<!-- process_payment&#45;&gt;shipped -->
<g id="edge7" class="edge">
<title>process_payment&#45;&gt;shipped</title>
<path fill="none" stroke="#555555" d="M412.21,-203.91C420.36,-203.91 429.28,-203.91 437.95,-203.91"/>
<polygon fill="#555555" stroke="#555555" points="437.95,-207.41 447.95,-203.91 437.95,-200.41 437.95,-207.41"/>
</g>
<!-- out_of_stock_t&#45;&gt;out_of_stock -->
<g id="edge9" class="edge">
<title>out_of_stock_t&#45;&gt;out_of_stock</title>
<path fill="none" stroke="#d9534f" stroke-dasharray="5,2" d="M194.48,-50.91C204.28,-50.91 215.72,-50.91 226.71,-50.91"/>
<polygon fill="#d9534f" stroke="#d9534f" points="227.05,-54.41 237.05,-50.91 227.05,-47.41 227.05,-54.41"/>
</g>
</g>
</svg>
